<svg id="Main_Layer" data-name="Main Layer" xmlns="http://www.w3.org/2000/svg" viewBox="0 0 7104.78 688.69"><defs><style>.cls-1{fill:#205ea3;}.cls-2{fill:#fff;}.cls-3{fill:#b3edff;}.cls-4{fill:#64c8ff;}.cls-5{fill:#97d4ef;}.cls-6{fill:#010b1d;opacity:0.2;}</style></defs><title>dalasite_svg3</title><g id="Night_Sky" data-name="Night Sky"><rect class="cls-1" y="0.69" width="3227.94" height="688"/></g><rect id="White_BG" data-name="White BG" class="cls-2" x="3222.2" y="0.25" width="3882.58" height="617.56"/><g id="Sky_BG" data-name="Sky BG"><rect class="cls-3" x="3222" width="3882.78" height="215.93"/><rect class="cls-3" x="3222" y="226.82" width="3882.78" height="18.29"/><rect class="cls-3" x="3222" y="252.85" width="3882.78" height="9.68"/><rect class="cls-3" x="3222" y="472.33" width="3882.78" height="215.93"/><rect class="cls-3" x="3222" y="443.14" width="3882.78" height="18.29"/><rect class="cls-3" x="3222" y="425.72" width="3882.78" height="9.68"/><rect class="cls-4" x="3222" width="3882.78" height="87.6"/><rect class="cls-4" x="3222" y="95.08" width="3882.78" height="28.44"/><rect class="cls-4" x="3222" y="130.28" width="3882.78" height="11.15"/></g><path id="Sky_BLDG_BG" data-name="Sky BLDG BG" class="cls-5" d="M5453.85,630V280.49H5227.16v26.71h-61.93V261.08c0-2.29-2.65-4-5.36-3.37l-60.43,15.12V330h-35.94v50h-14.15V305.48h-29.13v-38h-46.41v56.14h-92.73V288.56l-77.77-16.33v56.65h-41.94v-66.1l-44.87,16.33v108H4672.7v45.79h-35.89V286.1H4526.07V267.49h-48.79v14.64h-18.17v-18l-75.58-8.17V233.19l-158.89-16.33V687.79H5453.85Z" transform="translate(0)"/><path id="Sky_BLDG_BG-2" data-name="Sky BLDG BG" class="cls-5" d="M3000.92,629.44V279.89H3227.6v26.71h61.93V260.48c0-2.29,2.65-4,5.36-3.37l60.43,15.12v57.21h35.94v50h14.15V304.88h29.13v-38h46.41V323h92.73V288l77.77-16.33v56.65h41.94v-66.1l44.87,16.33v108h43.81v45.79H3818V285.5h110.74V266.89h48.79V388h18.17V263.5l75.58-8.17V232.59l158.9-16.33V687.19H3000.92Z" transform="translate(0)"/><path id="Sky_BLDG_BG-3" data-name="Sky BLDG BG" class="cls-5" d="M7104.78,630.67V282h-667v26.64h-61.92v-46c0-2.28-2.65-3.94-5.36-3.36l-60.43,15.08V331.4h-35.94v49.84H6260V306.91h-29.13V269h-46.4v56H6091.7V290l-77.77-16.29v56.51H5972V264.31l-44.87,16.29V388.38h-43.8v45.68h-35.9V287.57H5736.68V269h-48.79v14.6h-18.17v-18l-75.57-8.15V234.79l-158.9-16.29V688.29H7104.78Z" transform="translate(0)"/><path id="Sky_BLDG_BG-4" data-name="Sky BLDG BG" class="cls-5" d="M4213.77,630.46V280.91h226.69v26.71h61.93V261.5c0-2.29,2.65-4,5.36-3.37l60.43,15.12v57.21h35.94v50h14.15V305.9h29.13v-38h46.41V324h92.73V289l77.77-16.33v56.65h41.94V263.2l44.87,16.33v108h43.81v45.79h35.89V286.52h110.74V267.91h48.79V389h18.17V264.51l75.58-8.17V233.61L5443,217.27V688.21H4213.77Z" transform="translate(0)"/><g id="Night_BLDG_BG" data-name="Night BLDG BG"><path class="cls-6" d="M0,607.69V178H117V210.8h12V154.11a4.29,4.29,0,0,1,5.38-4.14L205,168.55v70.33h16V250.1h14.2v-41.4h39.24V162H331v69h93V137.69h78v59.6h12v-41.1h45v52.5h74V375.43h36V255l81-30V162h79v58.5h18.22V177.69H913v-28h39v529H0Z" transform="translate(0)"/><path class="cls-6" d="M952,615.69V206H835V238.8H823V182.11a4.29,4.29,0,0,0-5.38-4.14L747,196.55v70.33H731V278.1H716.8v-41.4H677.56V190H621v69H528V165.69H450v59.6H438v-41.1H393v52.5H319V403.43H283V283l-81-30V190H123v58.5H104.78V205.69H39v-28H0v509H952Z" transform="translate(0)"/></g></svg>