<?xml version="1.0" encoding="UTF-8"?>
<svg width="51px" height="51px" viewBox="0 0 51 51" version="1.1" xmlns="http://www.w3.org/2000/svg" xmlns:xlink="http://www.w3.org/1999/xlink">
    <!-- Generator: Sketch 50.2 (55047) - http://www.bohemiancoding.com/sketch -->
    <title>Scroll</title>
    <desc>Created with Sketch.</desc>
    <defs></defs>
    <g id="Page-1" stroke="none" stroke-width="1" fill="none" fill-rule="evenodd">
        <g id="Scroll" transform="translate(1.000000, 1.000000)">
            <g id="Group-27-Copy">
                <g id="Group-19" stroke-linecap="round" transform="translate(24.380208, 39.257418) rotate(90.000000) translate(-24.380208, -39.257418) translate(17.380208, 36.757418)" stroke="#EA1B75">
                    <path d="M0.14,2.1 L13.3119095,2.1" id="Line-7"></path>
                    <polyline id="Line-7-Copy" stroke-linejoin="round" points="11.2 4.47999999 13.44 2.13931204 11.2 0"></polyline>
                </g>
                <g id="Group-19-Copy" stroke-linecap="round" transform="translate(24.380208, 9.742582) scale(-1, 1) rotate(-90.000000) translate(-24.380208, -9.742582) translate(17.380208, 7.242582)" stroke="#EA1B75">
                    <path d="M0.14,2.1 L13.3119095,2.1" id="Line-7"></path>
                    <polyline id="Line-7-Copy" stroke-linejoin="round" points="11.2 4.47999999 13.44 2.13931204 11.2 0"></polyline>
                </g>
                <circle id="Oval-5" stroke="#2A2C47" cx="24.5" cy="24.5" r="24.5"></circle>
            </g>
            <path d="M11.6820001,22.693 L11.0590001,23.33 C11.0543334,23.344 11.0403336,23.351 11.0170001,23.351 L10.9960001,23.358 L10.9750001,23.358 C10.9563334,23.358 10.9446668,23.3556667 10.9400001,23.351 L10.9050001,23.323 C10.8023329,23.2296662 10.6786675,23.1515003 10.5340001,23.0885 C10.3893327,23.0254997 10.2470008,22.994 10.1070001,22.994 C10.0276664,22.994 9.94716722,23.0021666 9.86550014,23.0185 C9.78383307,23.0348334 9.70916715,23.0616665 9.64150015,23.099 C9.57383314,23.1363335 9.51900036,23.1864997 9.47700015,23.2495 C9.43499994,23.3125003 9.41400015,23.3929995 9.41400015,23.491 C9.41400015,23.626334 9.45949969,23.727833 9.55050015,23.7955 C9.6415006,23.863167 9.7453329,23.9179998 9.86200014,23.96 L10.1770001,24.072 C10.3683344,24.1326669 10.5549992,24.2003329 10.7370001,24.275 C10.919001,24.349667 11.0834994,24.4429994 11.2305001,24.555 C11.3775009,24.6670005 11.495333,24.8034991 11.5840001,24.9644999 C11.6726672,25.1255008 11.7170001,25.3249988 11.7170001,25.5629999 C11.7170001,25.833668 11.6668339,26.0716656 11.5665001,26.2769999 C11.4661663,26.4823343 11.3308343,26.6549992 11.1605001,26.7949999 C10.9901659,26.9350006 10.7895013,27.0399996 10.5585001,27.1099999 C10.327499,27.1800003 10.0813348,27.2149999 9.82000014,27.2149999 C9.49799854,27.2149999 9.17950173,27.1636671 8.86450016,27.0609999 C8.54949859,26.9583327 8.27300136,26.795001 8.03500017,26.5709999 C7.98833328,26.524333 7.98833328,26.4776668 8.03500017,26.4309999 L8.67200016,25.7869999 C8.69066692,25.7776666 8.7093334,25.7729999 8.72800016,25.7729999 L8.75600016,25.7729999 C8.77000023,25.7729999 8.79100002,25.7776666 8.81900016,25.7869999 L8.85400016,25.8149999 C8.98000079,25.9363339 9.12816597,26.0354995 9.29850015,26.1124999 C9.46883433,26.1895003 9.64266593,26.2279999 9.82000014,26.2279999 C9.90866725,26.2279999 9.99383307,26.2198333 10.0755001,26.2034999 C10.1571672,26.1871665 10.2294998,26.1580001 10.2925001,26.1159999 C10.3555004,26.0739997 10.4068333,26.0180003 10.4465001,25.9479999 C10.486167,25.8779996 10.5060001,25.7916671 10.5060001,25.6889999 C10.5060001,25.5723327 10.4663339,25.4743337 10.3870001,25.3949999 C10.3076664,25.3156662 10.2190006,25.2526668 10.1210001,25.2059999 L9.91800014,25.1219999 L9.47700015,24.9819999 C9.29966593,24.9259997 9.13400093,24.8595003 8.98000016,24.7825 C8.82599939,24.7054996 8.69183407,24.6121672 8.57750017,24.5025 C8.46316626,24.3928327 8.37333383,24.2610007 8.30800017,24.107 C8.24266651,23.9529992 8.21000017,23.771001 8.21000017,23.561 C8.21000017,23.2949986 8.2636663,23.064001 8.37100017,22.868 C8.47833404,22.671999 8.6218326,22.5110006 8.80150016,22.385 C8.98116772,22.2589994 9.186499,22.1645003 9.41750015,22.1015 C9.6485013,22.0384997 9.88533226,22.007 10.1280001,22.007 C10.4033348,22.007 10.6774988,22.0524995 10.9505001,22.1435 C11.2235015,22.2345005 11.4649991,22.3686658 11.6750001,22.546 C11.7263337,22.5880002 11.728667,22.6369997 11.6820001,22.693 Z M18.092,26.3329999 C18.1433336,26.3750001 18.1456669,26.4239996 18.099,26.4799999 C17.8469987,26.7460012 17.5635016,26.936166 17.2485,27.0504999 C16.9334984,27.1648338 16.5986684,27.2219999 16.244,27.2219999 C15.8659981,27.2219999 15.514835,27.1590005 15.1905,27.0329999 C14.8661651,26.9069993 14.5838346,26.7296677 14.3435,26.5009999 C14.1031655,26.2723321 13.9153341,25.9970015 13.7800001,25.6749999 C13.644666,25.3529983 13.5770001,24.9960019 13.5770001,24.604 C13.5770001,24.2166647 13.6434994,23.8631682 13.7765001,23.5435 C13.9095007,23.2238317 14.0949989,22.9496678 14.333,22.721 C14.5710012,22.4923322 14.8544984,22.3150006 15.1835,22.189 C15.5125017,22.0629994 15.8729981,22 16.265,22 C16.5870016,22 16.9066651,22.0513328 17.224,22.154 C17.5413349,22.2566672 17.8166655,22.4246655 18.05,22.658 C18.0966669,22.7046669 18.0966669,22.7513331 18.05,22.798 L17.378,23.456 C17.3639999,23.47 17.3476667,23.477 17.329,23.477 L17.322,23.477 C17.3173333,23.4816667 17.3126667,23.484 17.308,23.484 C17.2939999,23.484 17.2776668,23.4793334 17.259,23.47 L17.217,23.435 C17.1003327,23.313666 16.9603341,23.2250003 16.797,23.169 C16.6336659,23.1129997 16.4703342,23.085 16.307,23.085 C16.0923323,23.085 15.8975009,23.1246663 15.7225,23.204 C15.5474991,23.2833337 15.3970007,23.390666 15.271,23.526 C15.1449994,23.661334 15.048167,23.8223324 14.9805,24.009 C14.912833,24.1956676 14.879,24.3939989 14.879,24.604 C14.879,24.8093343 14.9104997,25.0041657 14.9735,25.1884999 C15.0365003,25.3728342 15.1286661,25.5338326 15.25,25.6714999 C15.371334,25.8091673 15.5194991,25.9188329 15.6945,26.0004999 C15.8695009,26.082167 16.0666656,26.1229999 16.286,26.1229999 C16.4913344,26.1229999 16.6733325,26.0891669 16.832,26.0214999 C16.9906675,25.9538329 17.137666,25.845334 17.273,25.6959999 L17.287,25.6889999 C17.3056668,25.6796666 17.3219999,25.6749999 17.336,25.6749999 C17.3406667,25.6749999 17.3453333,25.6773332 17.35,25.6819999 L17.364,25.6819999 C17.3733334,25.6866666 17.3815,25.6901666 17.3885,25.6924999 C17.3955,25.6948333 17.4036666,25.6983332 17.413,25.7029999 L18.092,26.3329999 Z M22.5839999,23.652 C22.5839999,23.5399994 22.5606668,23.4478337 22.5139999,23.3755 C22.467333,23.3031663 22.4055003,23.2460002 22.3284999,23.204 C22.2514995,23.1619998 22.1663337,23.1340001 22.0729999,23.12 C21.9796661,23.1059999 21.8840004,23.099 21.7859999,23.099 L21.1489999,23.099 L21.1489999,24.254 L21.7159999,24.254 C21.8140004,24.254 21.9143327,24.2458334 22.0169999,24.2295 C22.1196671,24.2131665 22.2129995,24.1828335 22.2969999,24.1385 C22.3810003,24.0941664 22.4498329,24.0335004 22.5034999,23.9565 C22.5571668,23.8794996 22.5839999,23.7780006 22.5839999,23.652 Z M23.8439999,27.0889999 L22.6959999,27.0889999 C22.649333,27.0889999 22.6189999,27.0703334 22.6049999,27.0329999 L21.5619999,25.1219999 L21.1559999,25.1219999 L21.1559999,26.9839999 C21.1559999,27.0540003 21.1210002,27.0889999 21.0509999,27.0889999 L20.0849999,27.0889999 C20.0149996,27.0889999 19.9799999,27.0540003 19.9799999,26.9839999 L19.9799999,22.238 C19.9799999,22.1679996 20.0149996,22.133 20.0849999,22.133 L21.8699999,22.133 C22.1126678,22.133 22.3471654,22.1574998 22.5734999,22.2065 C22.7998343,22.2555002 23.0016656,22.3383327 23.1789999,22.455 C23.3563341,22.5716672 23.498666,22.7256657 23.6059999,22.917 C23.7133337,23.1083343 23.7669999,23.3463319 23.7669999,23.631 C23.7669999,23.976335 23.6760008,24.2609988 23.4939999,24.485 C23.311999,24.7090011 23.0600015,24.8699995 22.7379999,24.9679999 L23.9349999,26.9279999 C24.0003335,27.0353338 23.9700005,27.0889999 23.8439999,27.0889999 Z M31.0869997,24.59 C31.0869997,24.9820019 31.0205004,25.3389983 30.8874997,25.6609999 C30.754499,25.9830015 30.5690009,26.2594988 30.3309997,26.4904999 C30.0929985,26.7215011 29.8083347,26.9011659 29.4769997,27.0294999 C29.1456647,27.1578339 28.7816684,27.2219999 28.3849997,27.2219999 C28.0023312,27.2219999 27.6476681,27.1601672 27.3209998,27.0364999 C26.9943315,26.9128326 26.7096677,26.7355011 26.4669998,26.5044999 C26.2243319,26.2734988 26.0341671,25.9958349 25.8964998,25.6714999 C25.7588324,25.347165 25.6899998,24.9866686 25.6899998,24.59 C25.6899998,24.197998 25.7564991,23.8433349 25.8894998,23.526 C26.0225005,23.2086651 26.2079986,22.9368344 26.4459998,22.7105 C26.684001,22.4841655 26.9686648,22.3091673 27.2999998,22.1855 C27.6313348,22.0618327 27.9929978,22 28.3849997,22 C28.7676683,22 29.1234981,22.0594994 29.4524997,22.1785 C29.7815014,22.2975006 30.0673318,22.4689989 30.3099997,22.693 C30.5526676,22.9170011 30.7428324,23.1888317 30.8804997,23.5085 C31.0181671,23.8281682 31.0869997,24.1886646 31.0869997,24.59 Z M29.8059997,24.59 C29.8059997,24.3846656 29.7733334,24.1898342 29.7079997,24.0055 C29.6426661,23.8211657 29.5493337,23.6601673 29.4279997,23.5225 C29.3066658,23.3848326 29.157334,23.2763337 28.9799997,23.197 C28.8026655,23.1176663 28.6043342,23.078 28.3849997,23.078 C28.170332,23.078 27.9766673,23.1164996 27.8039998,23.1935 C27.6313322,23.2705004 27.483167,23.3778326 27.3594998,23.5155 C27.2358325,23.6531673 27.1401668,23.8141657 27.0724998,23.9985 C27.0048328,24.1828342 26.9709998,24.3799989 26.9709998,24.59 C26.9709998,24.7953343 27.0024995,24.9913323 27.0654998,25.1779999 C27.1285001,25.3646675 27.2206658,25.5279992 27.3419998,25.6679999 C27.4633337,25.8080006 27.6114989,25.9199995 27.7864998,26.0039999 C27.9615006,26.0880003 28.1609986,26.1299999 28.3849997,26.1299999 C28.6043342,26.1299999 28.8014989,26.0903337 28.9764997,26.0109999 C29.1515006,25.9316662 29.2996658,25.8220006 29.4209997,25.6819999 C29.5423337,25.5419992 29.6368327,25.3786675 29.7044997,25.1919999 C29.7721667,25.0053323 29.8059997,24.8046677 29.8059997,24.59 Z M33.2829996,27.0889999 C33.2129993,27.0889999 33.1779996,27.0540003 33.1779996,26.9839999 L33.1779996,22.238 C33.1779996,22.1679996 33.2129993,22.133 33.2829996,22.133 L34.2769996,22.133 C34.347,22.133 34.3819996,22.1679996 34.3819996,22.238 L34.3819996,26.0459999 L36.1949996,26.0459999 C36.2649999,26.0459999 36.2999996,26.0809996 36.2999996,26.1509999 L36.2999996,26.9839999 C36.2999996,27.0540003 36.2649999,27.0889999 36.1949996,27.0889999 L33.2829996,27.0889999 Z M38.2649995,27.0889999 C38.1949992,27.0889999 38.1599995,27.0540003 38.1599995,26.9839999 L38.1599995,22.238 C38.1599995,22.1679996 38.1949992,22.133 38.2649995,22.133 L39.2589995,22.133 C39.3289999,22.133 39.3639995,22.1679996 39.3639995,22.238 L39.3639995,26.0459999 L41.1769995,26.0459999 C41.2469998,26.0459999 41.2819995,26.0809996 41.2819995,26.1509999 L41.2819995,26.9839999 C41.2819995,27.0540003 41.2469998,27.0889999 41.1769995,27.0889999 L38.2649995,27.0889999 Z" id="SCROLL-Copy" fill="#2A2C47"></path>
        </g>
    </g>
</svg>